<?xml version="1.0" encoding="iso-8859-1"?>
<!-- Generator: Adobe Illustrator 18.0.0, SVG Export Plug-In . SVG Version: 6.00 Build 0)  -->
<!DOCTYPE svg PUBLIC "-//W3C//DTD SVG 1.1//EN" "http://www.w3.org/Graphics/SVG/1.1/DTD/svg11.dtd">
<svg version="1.1" id="Capa_1" xmlns="http://www.w3.org/2000/svg" xmlns:xlink="http://www.w3.org/1999/xlink" x="0px" y="0px"
	 viewBox="0 0 297 297" style="enable-background:new 0 0 297 297;" xml:space="preserve">
<g>
	<path d="M57.904,180.265c-1.229,0-2.459,0.044-3.688,0.109v22.342c0,4.692,0.35,9.304,1.015,13.814
		c1.088-0.107,2.184-0.182,3.28-0.182c18.249,0,33.095,14.846,33.095,33.095c0,7.916-2.841,15.579-7.998,21.574
		c-0.006,0.007-0.012,0.012-0.018,0.018c2.573,2.446,5.285,4.745,8.12,6.891c0.78-0.265,1.6-0.413,2.428-0.413
		c1.994,0,3.955,0.813,5.365,2.221c1.276,1.276,2.056,3.008,2.193,4.805c3.786,2.174,7.738,4.09,11.829,5.73
		c8.698-11.814,13.45-26.155,13.45-40.933C126.975,211.251,95.99,180.265,57.904,180.265z M75.032,202.065
		c-0.899,3.402-3.977,5.667-7.337,5.667c-0.639,0-1.278-0.086-1.928-0.249c-4.053-1.063-6.481-5.213-5.419-9.266
		c1.062-4.053,5.212-6.481,9.266-5.419C73.667,193.861,76.093,198.011,75.032,202.065z M86.573,217.086
		c-1.626,0-3.272-0.521-4.66-1.605c-3.305-2.579-3.89-7.348-1.311-10.653c2.579-3.305,7.337-3.89,10.643-1.311
		c3.305,2.579,3.89,7.337,1.322,10.643C91.071,216.077,88.839,217.086,86.573,217.086z M111.651,268.898
		c-1.019,3.241-4.01,5.321-7.228,5.321c-0.759,0-1.518-0.12-2.276-0.358c-3.998-1.247-6.221-5.505-4.964-9.505h-0.011
		c1.257-3.998,5.516-6.22,9.515-4.962C110.686,260.64,112.908,264.899,111.651,268.898z M114.1,244.905c0,0,0,0,0-0.012
		c0.422,4.173-2.623,7.89-6.796,8.301c-0.249,0.033-0.509,0.043-0.758,0.043c-3.848,0-7.153-2.926-7.543-6.838
		c-0.412-4.173,2.633-7.879,6.805-8.302C109.971,237.687,113.688,240.732,114.1,244.905z M103.956,232.159
		c-1.159,0.651-2.427,0.955-3.663,0.955c-2.676,0-5.266-1.41-6.643-3.913h-0.011c-2.027-3.673-0.694-8.291,2.97-10.318
		c3.663-2.026,8.279-0.704,10.317,2.97c0,0,0,0-0.011,0C108.952,225.516,107.619,230.134,103.956,232.159z"/>
	<path d="M58.725,231.531c3.281,10.197,8.251,19.641,14.585,28.002c2.018-2.96,3.124-6.472,3.124-10.09
		C76.433,239.633,68.508,231.648,58.725,231.531z"/>
	<path d="M242.586,208.746c0.127-1.995,0.198-4.005,0.198-6.031v-12.325c-11.366-3.676-23.155-2.676-33.269,1.943l15.345,15.345
		C230.214,206.348,236.976,206.877,242.586,208.746z"/>
	<path d="M205.157,250.421h-19.618c4.041,10.709,12.018,19.841,22.78,25.119c4.113-3.385,7.937-7.11,11.426-11.133
		C213.236,261.494,208.188,256.463,205.157,250.421z"/>
	<path d="M182.578,235.283h19.415c0.144-2.618,0.628-5.293,1.496-7.897c1.576-4.726,4.222-8.797,7.572-12.048l-14.28-14.28
		c-0.018-0.018-0.034-0.039-0.052-0.057c-5.23,5.007-9.359,11.311-11.803,18.643C183.194,224.84,182.448,230.098,182.578,235.283z"
		/>
	<path d="M228.935,251.857c5.385-8.782,9.37-18.51,11.649-28.871c-7.824-2.606-18.714-0.694-22.041,8.514
		C215.5,239.917,221.11,249.249,228.935,251.857z"/>
	<path d="M238.67,138.797c1.799,0,3.251,1.452,3.251,3.251c0,1.799-1.452,3.251-3.251,3.251c-1.799,0-3.251-1.452-3.251-3.251
		C235.419,140.249,236.871,138.797,238.67,138.797z M230,138.797c1.799,0,3.251,1.452,3.251,3.251c0,1.799-1.452,3.251-3.251,3.251
		c-1.789,0-3.251-1.452-3.251-3.251C226.749,140.249,228.211,138.797,230,138.797z M221.33,138.797c1.799,0,3.251,1.452,3.251,3.251
		c0,1.799-1.452,3.251-3.251,3.251c-1.789,0-3.251-1.452-3.251-3.251C218.079,140.249,219.542,138.797,221.33,138.797z
		 M184.261,145.299c4.194,0,7.586,3.392,7.586,7.586c0,4.183-3.392,7.586-7.586,7.586c-4.184,0-7.586-3.404-7.586-7.586
		C176.675,148.691,180.077,145.299,184.261,145.299z M157.17,27.173c1.799,0,3.251,1.452,3.251,3.251s-1.452,3.251-3.251,3.251
		c-1.788,0-3.251-1.452-3.251-3.251S155.381,27.173,157.17,27.173z M152.464,225.993c-0.456,0.118-0.911,0.184-1.366,0.184
		c-2.406,0-4.606-1.626-5.235-4.064c-0.758-2.893,0.986-5.853,3.88-6.61c2.893-0.748,5.853,0.985,6.611,3.89
		C157.102,222.287,155.358,225.245,152.464,225.993z M158.825,232.951c0.314,2.97-1.831,5.646-4.811,5.971
		c-0.195,0.01-0.391,0.022-0.585,0.022c-2.732,0-5.083-2.06-5.375-4.833c-0.325-2.98,1.831-5.646,4.801-5.972
		C155.834,227.824,158.5,229.971,158.825,232.951z M148.5,27.173c1.799,0,3.251,1.452,3.251,3.251s-1.452,3.251-3.251,3.251
		c-1.789,0-3.251-1.452-3.251-3.251S146.711,27.173,148.5,27.173z M139.83,27.173c1.799,0,3.251,1.452,3.251,3.251
		s-1.452,3.251-3.251,3.251c-1.789,0-3.251-1.452-3.251-3.251S138.042,27.173,139.83,27.173z M143.079,145.299
		c4.194,0,7.586,3.392,7.586,7.586c0,4.183-3.392,7.586-7.586,7.586c-4.183,0-7.586-3.404-7.586-7.586
		C135.493,148.691,138.896,145.299,143.079,145.299z M116.17,49.389c1.799,0,3.251,1.452,3.251,3.251
		c0,1.799-1.452,3.251-3.251,3.251c-1.799,0-3.251-1.452-3.251-3.251C112.919,50.841,114.371,49.389,116.17,49.389z M107.5,49.389
		c1.799,0,3.251,1.452,3.251,3.251c0,1.799-1.452,3.251-3.251,3.251c-1.789,0-3.251-1.452-3.251-3.251
		C104.249,50.841,105.711,49.389,107.5,49.389z M75.67,85.152c1.799,0,3.251,1.452,3.251,3.251c0,1.799-1.452,3.251-3.251,3.251
		c-1.788,0-3.251-1.452-3.251-3.251C72.419,86.604,73.881,85.152,75.67,85.152z M55.079,88.403c0-1.799,1.463-3.251,3.251-3.251
		c1.799,0,3.251,1.452,3.251,3.251c0,1.799-1.452,3.251-3.251,3.251C56.542,91.655,55.079,90.202,55.079,88.403z M65.039,159.734
		c-2.991,0-5.419-2.427-5.429-5.419c0-2.991,2.428-5.419,5.419-5.419c2.991-0.01,5.419,2.417,5.429,5.408
		C70.458,157.295,68.031,159.723,65.039,159.734z M67,91.655c-1.799,0-3.251-1.452-3.251-3.251c0-1.799,1.452-3.251,3.251-3.251
		s3.251,1.452,3.251,3.251C70.251,90.202,68.799,91.655,67,91.655z M83.354,156.017c-0.391,2.699-2.709,4.639-5.353,4.639
		c-0.26,0-0.521-0.022-0.792-0.054c-2.959-0.434-5.018-3.176-4.585-6.145c0.434-2.959,3.176-5.019,6.146-4.585
		C81.729,150.306,83.788,153.059,83.354,156.017z M95.861,159.593c-0.705,2.352-2.85,3.869-5.181,3.869
		c-0.52,0-1.04-0.076-1.56-0.227c-2.872-0.867-4.498-3.88-3.642-6.752c0.867-2.861,3.88-4.497,6.752-3.63
		C95.091,153.709,96.728,156.732,95.861,159.593z M95.579,52.64c0-1.799,1.452-3.251,3.251-3.251c1.799,0,3.251,1.452,3.251,3.251
		c0,1.799-1.452,3.251-3.251,3.251C97.031,55.891,95.579,54.439,95.579,52.64z M202.288,159.929V39.953
		c0-7.052-5.736-12.788-12.788-12.788s-12.788,5.736-12.788,12.788v73.117c0,4.19-3.647,7.586-7.837,7.586
		c-4.19,0-7.586-3.396-7.586-7.586V12.788C161.289,5.736,155.552,0,148.5,0s-12.788,5.736-12.788,12.788V113.07
		c0,4.19-3.396,7.586-7.586,7.586s-7.586-3.396-7.586-7.586V39.953c0-7.052-5.736-12.788-12.788-12.788
		c-7.052,0-12.788,5.736-12.788,12.788v85.839c0,4.19-3.396,7.586-7.586,7.586c-4.19,0-7.586-3.396-7.586-7.586v-45.09
		c0-7.052-5.736-12.788-12.788-12.788c-7.052,0-12.789,5.736-12.789,12.788v69.605c1.664,0.721,2.938,2.246,3.227,4.171
		c0.364,2.48-1.029,4.797-3.227,5.742v4.961c1.23-0.053,2.46-0.089,3.688-0.089c46.452,0,84.243,37.792,84.243,84.244
		c0,16.243-4.703,32.059-13.397,45.575c2.059,0.441,4.143,0.813,6.249,1.117c0.028-0.795,0.213-1.595,0.613-2.346
		c1.41-2.645,4.693-3.642,7.337-2.233c2.06,1.089,3.101,3.322,2.803,5.507c0.913,0.026,1.829,0.043,2.748,0.043
		c16.678,0,32.355-4.359,45.962-11.988c-22.257-14.977-32.816-43.505-23.928-70.167c5.171-15.515,16.076-28.088,30.704-35.403
		c13.006-6.503,27.57-8.145,41.547-4.796v-50.48c0-7.052-5.736-12.788-12.788-12.788c-7.052,0-12.788,5.736-12.788,12.788v35.763
		c0,4.19-3.396,7.586-7.586,7.586C205.433,167.516,202.288,164.119,202.288,159.929z M198.17,49.389
		c1.799,0,3.251,1.452,3.251,3.251c0,1.799-1.452,3.251-3.251,3.251c-1.799,0-3.251-1.452-3.251-3.251
		C194.919,50.841,196.371,49.389,198.17,49.389z M189.5,49.389c1.799,0,3.251,1.452,3.251,3.251c0,1.799-1.452,3.251-3.251,3.251
		c-1.789,0-3.251-1.452-3.251-3.251C186.249,50.841,187.711,49.389,189.5,49.389z M177.579,52.64c0-1.799,1.452-3.251,3.251-3.251
		c1.799,0,3.251,1.452,3.251,3.251c0,1.799-1.452,3.251-3.251,3.251C179.031,55.891,177.579,54.439,177.579,52.64z M107.728,164.98
		c-0.932,1.961-2.883,3.121-4.92,3.121c-0.769,0-1.549-0.163-2.298-0.521c-2.709-1.268-3.869-4.497-2.601-7.206
		s4.498-3.869,7.207-2.601C107.825,159.04,108.996,162.27,107.728,164.98z M114.133,174.462c-1.019,0-2.059-0.293-2.98-0.9
		c-2.504-1.658-3.176-5.018-1.528-7.511c1.658-2.492,5.018-3.175,7.51-1.517c2.492,1.647,3.175,5.007,1.528,7.499
		C117.612,173.617,115.889,174.462,114.133,174.462z M120.797,181.029c-2.222-1.994-2.406-5.429-0.412-7.651
		c1.994-2.233,5.429-2.417,7.652-0.423c0,0,0,0,0,0.012c2.232,1.994,2.416,5.419,0.422,7.651c-1.073,1.192-2.558,1.799-4.043,1.799
		C123.128,182.417,121.838,181.962,120.797,181.029z M129.272,189.819c-1.919-2.308-1.604-5.722,0.693-7.64
		c2.298-1.908,5.722-1.594,7.63,0.704c1.919,2.298,1.604,5.712-0.693,7.629c-1.019,0.846-2.244,1.257-3.468,1.257
		C131.884,191.769,130.345,191.097,129.272,189.819z M136.37,199.734c-1.572-2.557-0.759-5.895,1.799-7.445
		c2.558-1.56,5.884-0.758,7.445,1.799c1.56,2.547,0.747,5.885-1.799,7.445c-0.889,0.542-1.853,0.792-2.817,0.792
		C139.167,202.325,137.39,201.403,136.37,199.734z M141.941,210.572c-1.171-2.753,0.108-5.938,2.871-7.109
		c2.753-1.16,5.928,0.12,7.098,2.871c1.171,2.753-0.118,5.939-2.871,7.11c-0.683,0.292-1.409,0.434-2.113,0.434
		C144.823,213.878,142.819,212.631,141.941,210.572z M150.957,286.53c-0.856,2.092-2.883,3.371-5.018,3.371
		c-0.683,0-1.376-0.13-2.048-0.412c-2.775-1.127-4.097-4.292-2.97-7.065c1.138-2.764,4.302-4.097,7.065-2.959
		C150.763,280.592,152.095,283.756,150.957,286.53z M155.369,273.624c-0.661,2.395-2.84,3.977-5.213,3.977
		c-0.476,0-0.964-0.066-1.452-0.196c-2.883-0.79-4.573-3.781-3.781-6.664c0.791-2.883,3.781-4.585,6.664-3.782
		C154.469,267.75,156.159,270.73,155.369,273.624z M158.175,260.239c-0.401,2.699-2.709,4.649-5.365,4.649
		c-0.26,0-0.52-0.021-0.78-0.065c-2.959-0.423-5.018-3.176-4.585-6.134c0.423-2.959,3.176-5.018,6.134-4.585
		c2.959,0.423,5.018,3.176,4.585,6.134C158.165,260.239,158.165,260.239,158.175,260.239z M153.905,251.927
		c-0.054,0-0.097,0-0.151,0c-2.991-0.087-5.353-2.569-5.267-5.57c0.076-2.98,2.569-5.343,5.571-5.257
		c2.98,0.076,5.342,2.569,5.256,5.561C159.238,249.597,156.821,251.927,153.905,251.927z M156.084,152.885
		c0-4.194,3.402-7.586,7.586-7.586c4.194,0,7.586,3.392,7.586,7.586c0,4.183-3.392,7.586-7.586,7.586
		C159.486,160.471,156.084,157.068,156.084,152.885z"/>
</g>
<g>
</g>
<g>
</g>
<g>
</g>
<g>
</g>
<g>
</g>
<g>
</g>
<g>
</g>
<g>
</g>
<g>
</g>
<g>
</g>
<g>
</g>
<g>
</g>
<g>
</g>
<g>
</g>
<g>
</g>
</svg>
